<?xml version="1.0" encoding="utf-8"?>
<svg xmlns="http://www.w3.org/2000/svg" version="1.1" width="1000" height="800">

<circle cx="400" cy="400" r="9" fill="blue" />
<circle cx="300" cy="400" r="9" fill="blue" />
<circle cx="200" cy="400" r="9" fill="blue" />
<circle cx="100" cy="400" r="9" fill="blue" />
<circle cx="400" cy="300" r="9" fill="blue" />
<circle cx="300" cy="300" r="9" fill="blue" />
<circle cx="400" cy="100" r="9" fill="blue" />
<circle cx="300" cy="100" r="9" fill="blue" />
<circle cx="200" cy="100" r="9" fill="blue" />
<circle cx="100" cy="100" r="9" fill="blue" />
<circle cx="100" cy="200" r="9" fill="blue" />
<circle cx="200" cy="200" r="9" fill="blue" />
<circle cx="300" cy="200" r="9" fill="blue" />
<circle cx="400" cy="200" r="9" fill="blue" />
<circle cx="100" cy="300" r="9" fill="blue" />
<circle cx="200" cy="300" r="9" fill="blue" />
<line x1="400" y1="300" x2="400" y2="400" stroke="blue" />
<line x1="300" y1="300" x2="300" y2="400" stroke="blue" />
<line x1="100" y1="400" x2="200" y2="400" stroke="blue" />
<line x1="300" y1="300" x2="400" y2="300" stroke="blue" />
<line x1="200" y1="300" x2="300" y2="300" stroke="blue" />
<line x1="100" y1="300" x2="200" y2="300" stroke="blue" />
<line x1="300" y1="200" x2="400" y2="200" stroke="blue" />
<line x1="200" y1="200" x2="300" y2="200" stroke="blue" />
<line x1="100" y1="100" x2="200" y2="100" stroke="blue" />
<line x1="200" y1="100" x2="300" y2="100" stroke="blue" />
<line x1="300" y1="100" x2="400" y2="100" stroke="blue" />
<line x1="100" y1="200" x2="200" y2="200" stroke="blue" />
<line x1="200" y1="400" x2="300" y2="400" stroke="blue" />
<line x1="300" y1="400" x2="400" y2="400" stroke="blue" />
<line x1="100" y1="100" x2="100" y2="200" stroke="blue" />
<line x1="200" y1="100" x2="200" y2="200" stroke="blue" />
<line x1="300" y1="100" x2="300" y2="200" stroke="blue" />
<line x1="400" y1="100" x2="400" y2="200" stroke="blue" />
<line x1="100" y1="200" x2="100" y2="300" stroke="blue" />
<line x1="200" y1="200" x2="200" y2="300" stroke="blue" />
<line x1="300" y1="200" x2="300" y2="300" stroke="blue" />
<line x1="400" y1="200" x2="400" y2="300" stroke="blue" />
<line x1="100" y1="300" x2="100" y2="400" stroke="blue" />
<line x1="200" y1="300" x2="200" y2="400" stroke="blue" />
  

<defs>
    <radialGradient id="redball" cx="30%" cy="30%" r="100%" fx="30%" fy="30%">
      <stop offset="0%" style="stop-color:rgb(255,250,250)" />
      <stop offset="3%" style="stop-color:rgb(255,250,250)" />
      <stop offset="7%" style="stop-color:rgb(255,160,160)" />
      <stop offset="70%" style="stop-color:rgb(255,0,0)" />
      <stop offset="100%" style="stop-color:rgb(255,0,0)" />
    </radialGradient>
    <radialGradient id="greenball" cx="30%" cy="30%" r="100%" fx="30%" fy="30%">
      <stop offset="0%" style="stop-color:rgb(250,255,250)" />
      <stop offset="3%" style="stop-color:rgb(250,255,250)" />
      <stop offset="7%" style="stop-color:rgb(160,255,160)" />
      <stop offset="70%" style="stop-color:rgb(0,255,0)" />
      <stop offset="100%" style="stop-color:rgb(0,255,0)" />
    </radialGradient>
    <radialGradient id="blueball" cx="30%" cy="30%" r="100%" fx="30%" fy="30%">
      <stop offset="0%" style="stop-color:rgb(250,250,255)" />
      <stop offset="3%" style="stop-color:rgb(250,250,255)" />
      <stop offset="7%" style="stop-color:rgb(160,160,255)" />
      <stop offset="70%" style="stop-color:rgb(0,0,255)" />
      <stop offset="100%" style="stop-color:rgb(0,255,0)" />
    </radialGradient>
    <radialGradient id="yellowball" cx="30%" cy="30%" r="100%" fx="30%" fy="30%">
      <stop offset="0%" style="stop-color:rgb(255,255,250)" />
      <stop offset="3%" style="stop-color:rgb(255,255,250)" />
      <stop offset="7%" style="stop-color:rgb(255,255,160)" />
      <stop offset="70%" style="stop-color:rgb(255,255,0)" />
      <stop offset="100%" style="stop-color:rgb(255,255,0)" />
    </radialGradient>
    <radialGradient id="greyball" cx="30%" cy="30%" r="100%" fx="30%" fy="30%">
      <stop offset="0%" style="stop-color:rgb(250,250,250)" />
      <stop offset="3%" style="stop-color:rgb(250,250,250)" />
      <stop offset="7%" style="stop-color:rgb(160,160,160)" />
      <stop offset="70%" style="stop-color:rgb(100,100,100)" />
      <stop offset="100%" style="stop-color:rgb(100,100,100)" />
    </radialGradient>
  </defs>


</svg>
